<svg width="73" height="79" viewBox="0 0 73 79" fill="none" xmlns="http://www.w3.org/2000/svg">
<path d="M20.5931 27.9044L36.1154 54.8121L67.1504 1H5.07715L16.8836 21.47" stroke="#E4EFEE" stroke-miterlimit="10"/>
<path d="M36.2054 70.5798L70.4107 11.2705H2L36.2054 70.5798Z" stroke="#E4EFEE" stroke-width="2" stroke-miterlimit="10"/>
<path d="M19.8171 68.3791C18.5386 65.9164 17.8154 63.121 17.8154 60.1542C17.8154 55.4778 19.6137 51.2216 22.5516 48.0383" stroke="#E4EFEE" stroke-miterlimit="10"/>
<path d="M53.3185 57.769C53.4218 58.5479 53.4767 59.3429 53.4767 60.1509C53.4767 70.0077 45.4927 77.9999 35.646 77.9999C31.5749 77.9999 27.8267 76.6361 24.8242 74.3383" stroke="#E4EFEE" stroke-miterlimit="10"/>
<path d="M50.2617 49.9255C50.6298 50.4523 50.972 50.9985 51.2819 51.5673" stroke="#E4EFEE" stroke-miterlimit="10"/>
<path d="M44.0342 44.3994C44.5636 44.6838 45.0802 44.9941 45.5774 45.3269C45.5774 45.3269 46.7396 46.1219 46.9495 46.2997" stroke="#E4EFEE" stroke-miterlimit="10"/>
<path d="M31.3945 42.8158C32.7569 42.4829 34.1807 42.3052 35.6464 42.3052C37.351 42.3052 39.004 42.5443 40.5633 42.9935" stroke="#E4EFEE" stroke-miterlimit="10"/>
<path d="M25.3213 45.4563C25.9734 45.0168 26.6546 44.6225 27.3617 44.2703" stroke="#E4EFEE" stroke-miterlimit="10"/>
<path d="M21.9837 73.6661C23.1801 73.6661 24.15 72.6953 24.15 71.4976C24.15 70.3 23.1801 69.3291 21.9837 69.3291C20.7873 69.3291 19.8174 70.3 19.8174 71.4976C19.8174 72.6953 20.7873 73.6661 21.9837 73.6661Z" fill="white"/>
<path d="M52.428 56.6542C53.6244 56.6542 54.5943 55.6833 54.5943 54.4857C54.5943 53.288 53.6244 52.3171 52.428 52.3171C51.2316 52.3171 50.2617 53.288 50.2617 54.4857C50.2617 55.6833 51.2316 56.6542 52.428 56.6542Z" fill="white"/>
</svg>
