<svg width="53" height="80" viewBox="0 0 53 80" fill="none" xmlns="http://www.w3.org/2000/svg">
<g clip-path="url(#clip0_186_44)">
<path d="M44.2547 15.5808C47.0588 14.1896 50.7875 11.9046 51.8702 8.86741C52.3265 7.5802 51.9937 6.18597 51.1911 5.1143C49.6159 2.90464 45.3766 2.31228 42.8075 2.06358C32.9496 1.36421 21.5452 3.83312 13.773 10.1169C10.8078 12.5678 8.47964 15.7044 7.33965 19.3716C7.18905 19.8419 7.07611 20.3212 7.00834 20.811C6.08219 28.4635 14.4492 38.2035 19.0754 43.9838C21.7771 47.235 25.5495 51.6408 28.0614 55.011C29.5568 57.0278 30.9738 59.1862 31.8563 61.6084C33.6725 66.3322 32.8442 71.6453 29.0372 75.1678C27.5508 76.5017 25.7603 77.4649 23.9607 78.2653C17.1569 81.2994 9.47657 80.3438 3.76455 75.513C-0.420456 72.0025 -1.05144 66.8974 1.55383 62.2279C3.99646 57.8327 8.0881 54.6463 12.255 52.0553C24.0375 45.0465 37.7521 41.94 51.2408 40.3784L52.9997 40.2021C41.5425 42.4886 30.132 45.5559 19.6989 50.8887C13.8302 53.9258 4.75094 59.7017 3.51004 66.599C3.02513 69.5577 4.61239 71.8548 7.0234 73.4163C11.6617 76.657 17.2773 76.969 22.381 74.6523C23.6414 74.0871 24.8703 73.3998 25.947 72.5647C27.1412 71.5805 28.0418 70.1727 28.4604 68.6926C29.6019 64.7149 27.1683 60.591 24.792 57.4242C23.4411 55.5898 21.9683 53.7826 20.4805 51.9739C14.1179 43.9974 0.630689 29.6693 3.94677 18.7702C6.85323 9.41153 16.0515 3.79694 25.0871 1.55714C32.0867 -0.158138 39.5216 -0.678147 46.5543 1.13962C48.3177 1.65813 50.1715 2.34092 51.4998 3.72007C52.8054 5.16555 53.4229 7.30286 52.6202 9.14324C51.298 12.2738 47.2801 14.4006 44.2532 15.5793L44.2547 15.5808Z" fill="#E9ECEC"/>
</g>
<defs>
<clipPath id="clip0_186_44">
<rect width="53" height="80" fill="white"/>
</clipPath>
</defs>
</svg>
